<svg width="24" height="25" viewBox="0 0 24 25" fill="none" xmlns="http://www.w3.org/2000/svg">
<path d="M14.5 8.31641C14.0858 8.31641 13.75 8.65219 13.75 9.06641C13.75 9.48062 14.0858 9.81641 14.5 9.81641V8.31641ZM17.2764 9.61919L16.6056 9.9546V9.9546L17.2764 9.61919ZM17.3292 11.4018C17.5144 11.7723 17.9649 11.9225 18.3354 11.7372C18.7059 11.552 18.8561 11.1015 18.6708 10.731L17.3292 11.4018ZM17.1272 9.9776L17.5384 9.35037L16.284 8.52798L15.8728 9.15521L17.1272 9.9776ZM13.7644 13.7393L13.1372 13.3281V13.3281L13.7644 13.7393ZM12.0726 13.7088L11.431 14.0972L12.0726 13.7088ZM10.1644 10.5565L9.52284 10.9448H9.52284L10.1644 10.5565ZM8.43044 10.5966L7.77155 10.2383L8.43044 10.5966ZM5.34111 14.7081C5.14324 15.072 5.27783 15.5274 5.64173 15.7253C6.00562 15.9232 6.46103 15.7886 6.65889 15.4247L5.34111 14.7081ZM6 2.81641H18V1.31641H6V2.81641ZM21.25 6.06641V18.0664H22.75V6.06641H21.25ZM18 21.3164H6V22.8164H18V21.3164ZM2.75 18.0664V6.06641H1.25V18.0664H2.75ZM6 21.3164C4.20507 21.3164 2.75 19.8613 2.75 18.0664H1.25C1.25 20.6898 3.37665 22.8164 6 22.8164V21.3164ZM21.25 18.0664C21.25 19.8613 19.7949 21.3164 18 21.3164V22.8164C20.6234 22.8164 22.75 20.6898 22.75 18.0664H21.25ZM18 2.81641C19.7949 2.81641 21.25 4.27148 21.25 6.06641H22.75C22.75 3.44305 20.6234 1.31641 18 1.31641V2.81641ZM6 1.31641C3.37665 1.31641 1.25 3.44305 1.25 6.06641H2.75C2.75 4.27148 4.20507 2.81641 6 2.81641V1.31641ZM14.5 9.81641H16.382V8.31641H14.5V9.81641ZM16.6056 9.9546L17.3292 11.4018L18.6708 10.731L17.9472 9.28378L16.6056 9.9546ZM16.382 9.81641C16.4767 9.81641 16.5632 9.86991 16.6056 9.9546L17.9472 9.28378C17.6508 8.69091 17.0448 8.31641 16.382 8.31641V9.81641ZM15.8728 9.15521L13.1372 13.3281L14.3917 14.1505L17.1272 9.9776L15.8728 9.15521ZM12.7142 13.3205L10.8061 10.1681L9.52284 10.9448L11.431 14.0972L12.7142 13.3205ZM7.77155 10.2383L5.34111 14.7081L6.65889 15.4247L9.08934 10.9549L7.77155 10.2383ZM10.8061 10.1681C10.1065 9.0124 8.41688 9.05152 7.77155 10.2383L9.08934 10.9549C9.18153 10.7853 9.4229 10.7797 9.52284 10.9448L10.8061 10.1681ZM13.1372 13.3281C13.0363 13.4819 12.8095 13.4778 12.7142 13.3205L11.431 14.0972C12.0978 15.1987 13.6857 15.2273 14.3917 14.1505L13.1372 13.3281Z" fill="white"/>
</svg>
