<svg width="24" height="25" viewBox="0 0 24 25" fill="none" xmlns="http://www.w3.org/2000/svg">
<ellipse cx="10" cy="17.5664" rx="7" ry="3.5" stroke="#28303F" stroke-width="1.5" stroke-linejoin="round"/>
<circle cx="10" cy="7.06641" r="4" stroke="#28303F" stroke-width="1.5" stroke-linejoin="round"/>
<path fill-rule="evenodd" clip-rule="evenodd" d="M15.0447 10.316C14.7227 10.8149 14.3286 11.2629 13.8773 11.6455C14.2318 11.7565 14.6089 11.8164 15 11.8164C17.0711 11.8164 18.75 10.1375 18.75 8.0664C18.75 6.11063 17.2528 4.50454 15.342 4.33179C15.6082 4.85075 15.801 5.41358 15.9067 6.00656C16.6978 6.35527 17.25 7.14635 17.25 8.0664C17.25 9.29411 16.2667 10.2922 15.0447 10.316Z" fill="#28303F"/>
<path fill-rule="evenodd" clip-rule="evenodd" d="M18.9995 17.6227C18.9895 18.2369 18.8146 18.827 18.5008 19.3773C18.8692 19.2759 19.2143 19.1585 19.5311 19.0265C20.1282 18.7777 20.6604 18.4623 21.0548 18.0738C21.4519 17.6827 21.75 17.1729 21.75 16.5664C21.75 15.96 21.4519 15.4501 21.0548 15.059C20.6604 14.6705 20.1282 14.3552 19.5311 14.1063C18.5085 13.6802 17.1906 13.4058 15.7494 13.3348C16.7516 13.8439 17.5701 14.4834 18.135 15.2107C18.4327 15.2939 18.7071 15.388 18.9542 15.491C19.4428 15.6946 19.7893 15.9179 20.0022 16.1276C20.2124 16.3347 20.25 16.4825 20.25 16.5664C20.25 16.6503 20.2124 16.7982 20.0022 17.0052C19.796 17.2084 19.4643 17.4243 18.9995 17.6227Z" fill="#28303F"/>
</svg>
